<svg xmlns="http://www.w3.org/2000/svg" width="165.46" height="267.97" overflow="visible"><path d="M94.8 101.4c28.07-9.67 71.73-50.84 70.64-83.43-.62-5.93-2.03-20.9-30.25-17.47-26.35 3.27-75.01 34.15-98.4 87.33-15.9-19.18-11.69-53.95 17.16-70.95 10.29-5.93 20.27-6.71 29.16-3.27 2.34.78 9.51.16 8.73-6.39-.78-4.68-6.55-3.9-8.73-3.59-28.69 4.36-62.85 19.49-65.5 60.19-.31 15.28 5.77 26.04 15.6 32.74-.62 1.72-1.25 3.43-1.87 5.15-20.12 61.75 19.8 84.99 41.17 84.99 17.46.47 41.32-14.03 56.45-36.33-.31 1.09-.47 1.87-.47 1.87-2.81 8.73-10.29 33.21-19.49 54.73-22.14 50.68-46.78 55.98-60.35 56.92-16.69 1.4-36.49-4.52-36.18-26.98.62-31.34 54.89-28.07 70.8-36.8 6.71-3.74 12.47-10.76 11.07-12.01l-.47-.31C74.84 211.8 10.13 194.8.77 232.7c-4.37 17.31 9.98 33.06 37.89 35.09 53.64 4.05 80.93-60.5 85.3-72.51 6.71-18.56 28.07-77.81 28.07-77.81s2.96-7.95 7.33-11.85c1.72-1.56-2.18-1.56-2.18-1.56-7.49.62-12.94 3.9-18.4 17.62l-1.87 5.3c-11.38 28.38-37.89 54.89-62.69 54.42-26.98-.62-40.7-36.65-27.6-78.59 14.5 4.36 32.28 3.58 48.18-1.41zM57.38 78.32c28.85-51.3 66.9-78.59 83.74-73.29 17 5.15 11.7 27.76 4.21 41.17-7.8 13.57-31.19 54.89-78.59 54.89-6.86 0-12.94-1.4-18.09-3.9 2.33-6.24 5.14-12.63 8.73-18.87z" fill="#fff"/></svg>